<?xml version="1.0" standalone="no"?>
<!DOCTYPE svg PUBLIC "-//W3C//DTD SVG 20010904//EN"
 "http://www.w3.org/TR/2001/REC-SVG-20010904/DTD/svg10.dtd">
<svg version="1.0" xmlns="http://www.w3.org/2000/svg"
 width="192.000000pt" height="192.000000pt" viewBox="0 0 192.000000 192.000000"
 preserveAspectRatio="xMidYMid meet">

<g transform="translate(0.000000,192.000000) scale(0.100000,-0.100000)"
fill="#000000" stroke="none">
<path d="M340 1518 c-73 -72 -103 -213 -65 -304 l15 -36 87 47 c110 60 112 62
86 80 -52 36 -89 140 -74 208 11 47 -3 49 -49 5z"/>
<path d="M1537 1505 c8 -63 -13 -127 -58 -179 l-39 -44 27 -14 c16 -8 58 -31
94 -51 76 -42 80 -41 100 36 15 61 6 127 -27 195 -22 45 -76 102 -97 102 -4 0
-4 -20 0 -45z"/>
<path d="M586 1434 c-14 -14 -16 -74 -16 -513 0 -470 1 -499 18 -514 17 -15
57 -17 375 -17 344 0 358 1 377 20 19 19 20 33 20 200 0 167 -1 181 -20 200
-24 24 -39 25 -66 6 -19 -15 -20 -24 -24 -309 0 -4 -129 -6 -287 -5 l-288 3
-3 409 c-1 293 1 413 9 422 9 11 65 14 278 14 146 0 271 -4 277 -8 6 -4 14
-24 18 -45 9 -50 43 -68 81 -43 23 15 25 23 25 84 0 45 -5 75 -16 90 l-15 22
-364 0 c-317 0 -366 -2 -379 -16z"/>
<path d="M770 1140 c-11 -11 -20 -27 -20 -35 0 -8 9 -24 20 -35 18 -18 33 -20
158 -20 151 0 182 9 182 55 0 46 -31 55 -182 55 -125 0 -140 -2 -158 -20z"/>
<path d="M766 948 c-21 -30 -20 -44 4 -68 14 -14 33 -20 68 -20 60 0 92 21 92
60 0 38 -23 50 -94 50 -45 0 -58 -4 -70 -22z"/>
</g>
</svg>
